<svg width="469" height="160" viewBox="0 0 469 160" fill="none" xmlns="http://www.w3.org/2000/svg">
<path d="M116.604 38.3502C113.217 42.1988 108.519 45.0795 104.245 47.8058C97.181 52.2761 89.8484 56.3055 82.2892 59.8709C74.083 63.8488 65.5685 67.1534 56.8294 69.7521C49.1966 71.95 41.0786 73.6523 33.0959 73.0256C26.4895 72.5019 20.1677 69.9532 16.482 64.1405C15.5338 62.6634 14.8546 61.0294 14.4758 59.3144C14.2799 58.4072 14.1539 55.2366 14.1632 58.3792C14.1725 61.5217 14.3685 57.9115 14.5831 56.9762C15.4089 53.2351 17.2238 49.812 19.3466 46.6882C24.4787 39.1171 31.575 32.8648 38.8858 27.4635C45.0443 22.9087 51.6974 18.6111 58.8403 15.7725C69.8043 11.4001 81.3141 7.82267 92.9639 5.85391C102.566 4.2125 118.498 2.34194 124.186 12.6721C124.815 13.8186 125.286 15.0458 125.585 16.3197C125.747 17.0228 125.866 17.7349 125.945 18.4521C125.996 18.8964 125.987 19.35 126.047 19.7896C126.154 20.5425 126.08 17.3204 126.047 17.3672C125.912 17.573 125.996 18.2604 125.977 18.4942C125.623 22.8152 124.396 27.0614 122.903 31.1205C120.075 38.8131 115.904 45.968 111.29 52.7114C100.093 69.0507 86.1803 83.4774 71.8244 97.0202C57.9958 110.063 43.4394 122.324 28.5144 134.081C20.0091 140.763 11.3312 147.226 2.63936 153.675C2.40142 153.852 0.105983 155.545 0.0873212 154.979V159.572C0.259946 157.86 2.17748 155.882 3.13858 154.573C5.25672 151.673 7.49618 148.858 9.74963 146.062C12.8942 142.158 16.0885 138.292 19.3326 134.464C19.5985 134.151 19.3326 132.542 19.3326 132.126C19.3326 131.71 19.0434 130.106 19.3326 129.788C15.7806 133.987 12.2846 138.225 8.84451 142.503C6.54907 145.374 4.24897 148.245 2.14015 151.28C1.4683 152.149 0.879409 153.079 0.381249 154.058C-0.145955 155.26 0.0546625 156.569 0.0826557 157.855C0.0826557 158.692 -0.290586 159.703 0.549208 159.726C1.12773 159.754 2.05617 158.791 2.50406 158.445C3.92705 157.388 5.35937 156.34 6.78702 155.283C12.2364 151.259 17.6453 147.174 23.0137 143.031C39.8703 130.007 56.3022 116.334 71.8244 101.692C88.0092 86.4188 104.017 69.9345 115.559 50.752C120.402 42.6992 124.769 33.6738 125.87 24.2134C126.602 17.9424 126.873 9.9177 122.035 5.11972C117.565 0.695849 110.586 -0.0617263 104.618 0.00374321C96.8597 0.0925947 89.1242 1.64983 81.6407 3.59521C75.0502 5.32799 68.5521 7.39608 62.1715 9.79143C54.9844 12.5301 48.1703 16.1658 41.8904 20.6126C33.3805 26.5095 25.0292 33.5194 19.2113 42.1895C16.8226 45.7529 14.8071 49.7699 14.2705 54.0722C13.804 57.7478 13.7153 62.1811 14.9564 65.7164C17.6437 73.3951 25.2998 77.052 32.9 77.6973C42.133 78.4783 51.5621 76.1728 60.3006 73.3857C70.2843 70.1151 79.9735 66.0023 89.2642 61.0915C96.813 57.168 104.287 52.8797 111.127 47.7918C113.112 46.397 114.947 44.8001 116.604 43.0266C116.87 42.7273 116.627 41.0952 116.627 40.6884C116.627 40.2815 116.338 38.6541 116.604 38.3502Z" fill="#AA580D"/>
<path d="M153.168 44.4911C154.952 43.4568 156.796 42.5262 158.69 41.7043C159.125 41.5138 163.973 39.8464 163.987 40.3108V35.7497C163.842 36.7483 161.802 38.0721 161.133 38.6713C158.554 40.9565 155.887 43.1395 153.219 45.3132C144.571 52.3453 135.74 59.1544 126.849 65.8846C105.116 82.3315 82.9991 98.5462 59.7312 112.796C54.7613 115.848 49.7211 118.806 44.5079 121.431C43.7918 121.788 35.8737 125.732 35.7192 124.636V128.964C35.7192 129.229 36.0515 128.467 36.22 128.226C36.6295 127.681 37.0851 127.171 37.5818 126.702C39.0445 125.228 40.5864 123.832 42.2007 122.522C46.861 118.658 51.7542 115.08 56.8531 111.807C62.0009 108.486 67.3499 105.304 73.0686 103.093C77.3646 101.417 84.5293 99.3312 88.3668 102.991C89.0969 103.703 89.604 104.61 89.8269 105.602C89.8783 105.811 89.8877 106.066 89.9485 106.252C90.4165 107.845 90.2153 102.973 89.9485 104.264C89.8081 104.956 89.752 105.657 89.6022 106.354C89.0594 108.899 88.1375 111.338 87.3793 113.823C86.8121 115.794 86.3821 117.803 86.0924 119.833C85.6539 122.412 85.5956 125.04 85.9192 127.636C86.1298 129.029 86.8973 129.824 88.3761 129.675C91.9515 129.303 95.6017 125.904 98.2271 123.795C105.958 117.599 112.992 110.525 119.932 103.488C120.208 103.21 119.852 98.8435 119.932 98.8435C116.548 98.5044 112.973 102.819 110.984 104.984C107.741 108.419 104.952 112.249 102.682 116.382C102.022 117.482 101.605 118.709 101.461 119.982C101.405 120.859 100.824 124.366 101.756 124.975C102.757 125.63 105.322 123.358 105.907 122.945C109.463 120.437 112.87 117.715 116.202 114.919C119.455 112.192 122.637 109.378 125.796 106.558C126.825 105.629 127.845 104.7 128.889 103.772C129.322 103.476 129.73 103.147 130.11 102.787V98.2304C129.853 99.2429 128.795 100.293 128.196 101.124C126.966 102.838 125.716 104.543 124.518 106.28C123.582 107.627 122.384 109.104 121.846 110.669C121.696 111.128 121.625 111.608 121.635 112.09C121.635 112.745 121.2 115.513 121.635 116.052C122.52 117.12 128.346 112.336 129.231 111.691C133.985 108.3 138.646 104.784 143.27 101.203C145.212 99.6935 147.14 98.1746 149.035 96.614C150.065 95.7687 151.731 94.7561 152.438 93.6135C152.831 92.9726 153.163 88.9363 152.704 88.6762C152.447 88.5322 151.67 89.6795 151.422 89.986C148.895 93.1375 146.533 96.4164 144.346 99.8096C143.289 101.354 142.351 102.975 141.538 104.659C140.888 106.103 140.93 107.311 140.93 108.895C140.93 110.2 140.392 112.192 142.217 111.542C143.621 111.036 144.955 109.921 146.209 109.132C148.411 107.75 150.609 106.357 152.803 104.951C156.738 102.438 160.674 99.9025 164.437 97.1389C164.905 96.7905 168.92 94.0223 168.878 93.7482V89.1035C168.784 89.7584 168.106 90.4969 167.75 91.0218C166.912 92.2805 166.046 93.5206 165.204 94.7747C163.59 97.1807 161.46 99.8839 160.693 102.722C160.281 104.264 160.459 106.061 160.524 107.636C160.557 108.537 160.557 109.057 161.591 109.029C163.795 108.983 166.505 106.73 168.227 105.634C170.469 104.208 172.734 102.606 174.442 100.553C175.224 99.7205 175.785 98.7087 176.075 97.608C176.333 96.3353 176.543 93.9944 176.136 92.8332C175.921 92.2294 176.295 92.2712 175.734 92.8332C174.84 93.6925 174.171 95.1138 173.6 96.1914C171.821 99.5263 171.55 103.056 171.873 106.791C172.341 112.053 179.117 112.081 183.104 111.779C188.35 111.375 195.59 109.415 198.571 104.608C199.61 102.935 199.278 100.715 199.226 98.8388C199.179 97.176 198.431 96.5722 196.704 96.5165C196.704 96.5165 196.629 101.161 196.704 101.161C197.451 101.186 198.179 101.405 198.814 101.798C198.917 101.849 198.936 102.039 199.03 102.085L199.109 102.248C199.34 103.038 199.359 102.452 199.165 100.492C199.165 97.2968 199.296 98.5927 198.786 99.5634C197.7 101.695 195.323 103.228 193.269 104.301C190.007 105.97 186.43 106.943 182.767 107.158C179.791 107.353 175.687 107.459 173.319 105.3C172.705 104.674 172.255 103.909 172.008 103.07C171.943 102.894 172.008 102.638 171.91 102.471C173.398 105.667 171.592 106.544 172.023 105.072C172.191 104.478 172.303 103.888 172.491 103.302C173.141 101.555 174.014 99.8975 175.088 98.3697C175.373 97.9563 175.734 97.5615 175.986 97.1342C176.613 96.0752 176.693 91.4863 176.089 92.875C175.605 94.194 174.882 95.414 173.955 96.4747C172.678 97.8681 160.796 106.535 160.529 103.693V105.397C160.529 105.657 160.033 108.648 160.632 107.473C160.723 107.252 160.801 107.026 160.866 106.795C161.119 106.157 161.414 105.536 161.75 104.937C162.48 103.572 163.309 102.262 164.156 100.971C165.56 98.8156 167.521 96.6698 168.588 94.3242C169.116 93.1723 168.873 91.8021 168.868 90.548C168.864 89.294 169.196 88.9549 168.255 89.4426C167.315 89.9303 166.589 90.836 165.803 91.4584C164.488 92.4709 163.136 93.437 161.774 94.3846C158.821 96.4329 155.802 98.3883 152.77 100.325C149.494 102.415 146.246 104.742 142.816 106.577C142.348 106.832 141 107.603 140.921 106.577V110.906C140.949 109.749 142.231 107.845 142.896 106.726C144.136 104.645 145.507 102.634 146.906 100.655C148.184 98.8481 149.494 97.0646 150.861 95.3274C151.043 95.0906 152.7 93.3906 152.676 93.2466V88.6158C152.55 89.15 151.74 89.6702 151.347 90.0092C150.21 91.0311 149.007 91.9925 147.833 92.954C144.402 95.7408 140.902 98.4162 137.378 101.073C133.854 103.73 130.424 106.27 126.849 108.741C126.451 109.015 121.762 112.332 121.635 111.426V115.992C121.687 114.134 123.938 111.737 124.911 110.334C126.376 108.24 127.939 106.21 129.366 104.092C129.68 103.71 129.924 103.276 130.087 102.81C130.209 102.346 130.48 98.4905 130.087 98.2118C129.694 97.9331 125.159 102.462 124.78 102.805C120.765 106.396 116.708 109.94 112.505 113.307C110.432 114.97 108.326 116.586 106.164 118.124C105.228 118.774 103.73 120.181 102.495 120.348C102.027 120.414 101.648 120.028 101.484 120.033C103.216 119.954 100.609 125.755 101.634 123.363C101.816 122.936 101.957 122.49 102.149 122.067C103.335 119.637 104.768 117.334 106.426 115.193C108.522 112.275 110.893 109.561 113.507 107.088C115.098 105.615 117.536 103.251 119.937 103.493V98.8342C113.151 105.718 106.267 112.615 98.7465 118.727C95.9667 120.989 92.4054 124.301 88.7037 124.965C86.902 125.295 86.4106 124.473 85.9239 122.982C85.3811 121.319 85.8818 126.475 85.8865 126.447C85.9333 126.224 85.8865 125.983 85.9286 125.76C85.9941 125.295 86.0362 124.859 86.1064 124.408C86.2421 123.567 86.42 122.741 86.5744 121.904C87.3887 117.497 89.4806 113.377 89.9532 108.899C90.2153 106.405 90.4212 103.409 89.8222 100.948C89.1576 98.2211 86.799 96.9531 84.1503 96.6001C78.1461 95.7966 72.2122 98.5369 67.0176 101.203C60.9245 104.401 55.0901 108.063 49.5667 112.155C45.2894 115.263 40.8576 118.514 37.2448 122.374C36.4961 123.177 35.869 123.855 35.7099 124.937C35.6209 125.527 35.2746 128.834 35.7099 129.322C35.9673 129.601 36.0749 129.508 36.4539 129.522C37.8579 129.568 39.8655 128.249 41.0916 127.692C43.1741 126.763 45.2192 125.704 47.2408 124.631C52.3886 121.881 57.4147 118.871 62.3706 115.778C86.9441 100.427 110.366 83.149 133.335 65.5363C141.716 59.1126 150.084 52.6333 158.138 45.8241C159.883 44.3517 162.055 42.8561 163.463 41.0354C164.203 40.1065 163.973 39.354 163.973 38.0349C163.973 37.6123 164.249 35.9262 163.927 35.6568C163.276 35.1134 161.006 36.0934 160.328 36.3396C157.841 37.2962 155.445 38.4697 153.168 39.8464C152.466 40.2551 153.823 44.1102 153.168 44.4911Z" fill="#AA580D"/>
<path d="M129.686 92.8909C129.156 92.5063 128.715 92.011 128.395 91.4395C128.09 90.8916 128.109 90.1144 127.813 89.6275C127.968 89.8803 127.297 94.3096 127.903 92.7411C127.978 92.5491 128.001 92.3197 128.067 92.1184C128.244 91.5618 128.481 91.0264 128.776 90.5218C130.625 87.2442 134.01 84.861 137.094 82.8711C142.08 79.7463 147.342 77.0821 152.815 74.9114C173.755 66.3056 196.428 61.2629 218.716 57.6109C228.508 56.0096 238.493 54.5394 248.435 54.5113C248.477 54.5113 248.468 49.8291 248.435 49.8291C239.211 49.8291 229.949 51.1542 220.852 52.5869C208.722 54.4972 196.672 56.9834 184.777 60.0222C173.319 62.9485 161.879 66.3337 150.979 70.9925C145.304 73.4272 139.619 76.1943 134.634 79.8886C132.043 81.7989 129.043 84.257 128.062 87.4596C127.593 88.9392 127.757 90.5779 127.762 92.095C127.762 93.214 127.677 94.3939 128.076 95.4614C128.382 96.3191 128.936 97.0671 129.668 97.6105C128.963 97.1189 130.428 93.4481 129.668 92.9284L129.686 92.8909Z" fill="#AA580D"/>
<path d="M222.623 93.5509C236.908 85.6676 250.81 76.9592 264.212 67.696C274.334 60.7031 284.306 53.3187 293.213 44.7921C298.862 39.3749 306.474 32.0325 307.232 23.7296C307.54 20.2985 307.788 16.1027 305.76 13.0958C304.25 10.8628 301.928 9.61339 299.302 9.16118C291.68 7.8372 283.264 11.343 276.474 14.3872C265.764 19.1843 255.726 25.5105 246.198 32.3262C235.421 40.0135 225.266 48.532 215.824 57.8034C207.296 66.1948 199.216 75.2949 192.866 85.4671C188.034 93.2059 184.333 101.523 184.3 110.758C184.277 117.807 185.576 125.499 192.679 128.855C199.268 131.974 207.342 129.718 213.707 127.219C223.609 123.35 232.698 117.429 241.235 111.187C251.273 103.767 260.796 95.6789 269.74 86.9776C278.458 78.6742 286.639 69.8285 294.236 60.4933C299.932 53.4026 305.605 45.8736 309.376 37.5475C310.535 34.9881 311.563 32.2562 311.741 29.4358C311.9 26.8671 312.409 23.0769 310.806 20.76C305.059 12.4805 293.568 21.2914 288.628 25.6829C279.619 33.6641 272.138 43.4448 265.264 53.2581C261.614 58.4468 256.717 64.4466 255.806 70.9733C255.497 73.169 255.296 76.0081 255.843 78.1666C256.6 81.1455 259.946 80.9637 262.385 80.5255C262.694 80.4696 262.147 75.9056 262.385 75.8636C259.703 76.3298 257.245 76.3857 255.922 73.7844C255.787 73.514 255.852 73.183 255.75 72.9173C257.264 76.7354 255.502 76.8939 255.81 75.6352C255.951 75.0664 256.021 74.4837 256.179 73.9149C256.508 72.7471 256.922 71.605 257.418 70.4978C258.314 68.5001 259.375 66.5805 260.591 64.759C266.145 56.1435 272.3 47.9291 279.012 40.1768C282.82 35.8179 286.867 31.5803 291.428 27.9906C294.806 25.3286 298.881 22.5268 303.306 22.1539C306.288 21.9021 309.783 23.2355 311.166 26.0652C312.297 28.3962 310.797 30.5546 311.708 24.937C311.551 26.1842 311.309 27.4194 310.984 28.6339C308.806 35.9112 304.157 42.5544 299.736 48.6335C293.278 57.4911 286.002 65.8079 278.395 73.7238C262.46 90.2875 244.628 106.269 224.422 117.476C213.931 123.289 193.468 132.608 186.104 117.448C185.38 115.94 184.875 114.337 184.604 112.688C184.535 112.262 184.479 111.838 184.436 111.415C184.277 109.84 184.875 108.711 184.342 113.103C184.464 112.129 184.464 111.14 184.604 110.166C185.211 105.97 186.679 101.938 188.478 98.1195C193.057 88.3995 199.824 79.719 206.969 71.7472C223.496 53.3211 242.858 37.638 264.329 25.2867C272.357 20.6994 280.974 16.3079 290.086 14.3499C295.311 13.2264 302.236 12.6996 305.685 17.6831C306.454 18.8801 306.966 20.2229 307.189 21.6271C307.727 24.1259 307.465 17.2169 307.236 18.83C307.175 19.2402 307.157 19.6505 307.091 20.0607C306.947 20.8732 306.737 21.6729 306.465 22.4523C305.18 26.1818 302.797 29.543 300.302 32.5779C293.39 40.9693 284.699 47.9622 276.044 54.4888C260.091 66.5352 243.058 77.2342 225.693 87.1221C224.67 87.7048 223.642 88.2876 222.604 88.861C221.922 89.2386 223.24 93.1732 222.604 93.5229L222.623 93.5509Z" fill="#AA580D"/>
<path d="M283.115 77.4773C288.635 74.3891 294.043 71.0867 299.372 67.6959C308.441 61.9062 317.678 55.8091 325.383 48.2355C329.241 44.3731 332.554 40.0026 335.23 35.2449C335.892 34.0898 336.628 32.8229 336.8 31.4814C336.986 30.0608 337.219 27.7831 336.8 26.4277C336.148 24.2618 332.938 25.6591 331.546 26.1994C325.252 28.6448 320.175 33.8103 316.234 39.1342C312.678 44.0574 309.696 49.3707 307.346 54.9707C305.781 58.5898 304.416 62.2975 303.201 66.047C301.915 70.0294 301.3 74.268 300.345 78.3436C299.046 83.9097 297.653 89.4944 295.687 94.8788C294.639 97.7853 293.442 100.841 291.495 103.263C289.114 106.183 286.063 106.43 282.532 106.365C279.118 106.3 275.839 104.595 274.53 101.288C274.381 100.906 274.311 100.51 274.18 100.128C273.514 98.2231 273.635 103.761 274.124 102.094C274.357 101.096 274.712 100.131 275.182 99.2199C276.579 96.742 278.974 94.9161 281.4 93.5048C284.871 91.4879 288.709 90.0487 292.347 88.3812C295.277 87.0304 298.188 85.6564 301.118 84.3103C306.193 81.9441 311.393 79.8574 316.695 78.0595C317.087 77.9291 320.552 76.583 320.631 76.9696V72.3956C320.59 73.0756 319.532 73.9979 319.127 74.473C318.009 75.7725 316.835 77.0301 315.68 78.297C313.351 80.8588 310.71 83.4486 308.944 86.4575C308.236 87.6592 308.231 88.5396 308.227 89.9276C308.227 90.8824 307.691 93.0343 308.795 93.5467C310.127 94.1662 312.666 92.4009 313.681 91.8093C316.399 90.168 318.972 88.2981 321.372 86.22C324.962 83.2054 328.364 79.9747 331.56 76.5457V71.8879C327.12 77.2211 322.565 82.6008 318.759 88.4278C318.181 89.3127 317.459 90.2909 317.268 91.3389C317.133 92.0888 316.802 95.9175 317.445 96.2529C318.377 96.7513 322.369 92.8946 323.035 92.331C338.197 79.9925 353.034 66.9832 367.078 53.3731C369.443 51.1731 371.681 48.8404 373.781 46.3864C374.293 45.8811 374.706 45.2838 374.997 44.6257C375.097 43.9957 375.116 43.3555 375.053 42.7207C375.053 42.2549 375.393 40.0611 375.016 39.6885C374.112 38.8081 370.558 41.7612 369.892 42.2503C366.086 45.165 362.505 48.3615 359.178 51.8127C351.566 59.4469 343.871 67.9241 338.803 77.5192C336.791 81.3339 336.25 84.5059 336.292 88.8004C336.292 90.6309 336.637 93.5514 339.134 92.9272C342.161 92.168 345.05 89.4758 347.421 87.5894C351.427 84.3988 355.246 80.9613 359.01 77.4866C365.354 71.6317 371.527 65.5905 377.587 59.4469C377.936 59.0975 378.281 58.7436 378.621 58.3942V53.7224C371.974 60.588 365.112 67.7331 359.821 75.7073C358.861 77.1559 357.738 78.7721 357.491 80.5281C357.303 82.0345 357.303 83.5585 357.491 85.0648C357.557 85.5539 357.491 85.9219 357.957 86.2386C359.355 87.2447 362.588 85.2651 363.78 84.6223C367.071 82.7612 370.2 80.6266 373.134 78.2411C377.936 74.5149 382.566 70.4999 386.982 66.3125V61.6407C381.984 66.7643 376.455 72.1208 372.668 78.2458C371.797 79.6431 371.657 80.5747 371.652 82.2469C371.652 83.3042 371.019 85.6377 372.467 85.8147C374.256 86.0337 377.074 83.9796 378.523 83.1831C381.472 81.5854 384.313 79.8062 387.108 78.0036C387.881 77.5005 399.261 69.9549 399.354 70.1272V65.4694C399.243 66.0936 398.32 66.7596 397.957 67.2301C396.658 68.8163 395.548 70.5482 394.65 72.3909C393.532 74.7664 393.457 76.923 393.466 79.4894C393.466 81.2128 393.257 83.3461 395.139 84.1845C397.323 85.1533 400.263 83.8631 402.345 83.0247C407.1 81.112 411.526 78.467 415.462 75.1856C416.548 74.2541 418.062 73.043 418.42 71.5758C418.517 70.8924 418.538 70.2003 418.481 69.5124C418.481 68.6833 418.765 67.1835 418.439 66.401C417.34 63.7088 412.271 66.5594 410.841 67.3838C407.196 69.5078 403.841 72.0941 400.859 75.0785C399.825 76.1079 398.614 77.2537 397.962 78.5812C397.309 79.9086 397.594 81.8416 397.622 83.3275C397.645 84.45 397.673 84.9204 398.921 84.8506C400.85 84.7388 402.909 83.593 404.581 82.7266C413.198 78.2598 420.964 71.5479 427.993 64.9151C428.244 64.6776 427.993 62.9402 427.993 62.5862C427.993 62.2323 427.746 60.4343 427.993 60.2573C425.813 61.9435 423.717 63.76 421.704 65.6418C419.133 68.0499 415.295 71.2731 414.489 74.8922C414.137 76.7251 414.104 78.6048 414.391 80.4489C414.633 81.9394 415.788 82.4751 417.218 82.6847C422.342 83.4253 427.466 79.4522 431.132 76.3687C434.229 73.7493 437.074 70.8457 439.629 67.6959C439.899 67.3652 439.629 65.7955 439.629 65.367C439.629 65.0409 439.368 63.2383 439.629 63.0381C437.807 64.5758 436.071 66.2132 434.43 67.9427C432.451 70.0248 429.744 72.6983 429.488 75.7213C429.278 78.1852 428.636 82.5124 432.25 82.368C435.865 82.2236 439.116 78.5346 441.357 76.1358C443.429 73.9261 445.342 71.5727 447.082 69.0932C447.352 68.7066 447.082 67.2301 447.082 66.7643C447.082 66.2985 446.788 64.7847 447.082 64.4354C445.284 66.7643 444.483 69.9922 444.287 72.8521C443.868 78.7814 444.394 84.5245 447.156 89.881C451.68 98.6563 459.468 106.957 468.048 111.945C467.401 111.568 468.752 107.692 468.048 107.287C461.173 103.291 455.099 97.1565 450.548 90.7101C448.535 87.8502 446.705 84.818 445.545 81.5063C445.004 79.9879 444.621 78.4176 444.404 76.8205C444.194 75.2182 444.799 72.9126 444.254 77.8918C444.324 77.2304 444.348 76.583 444.45 75.9262C444.809 73.5973 445.596 71.0122 447.073 69.1072V64.4354C445.287 66.9811 443.319 69.3939 441.185 71.655C438.991 73.9839 434.887 78.5812 431.193 77.6123C430.434 77.412 430.182 77.0255 429.67 76.5271C429.604 76.3926 429.557 76.2501 429.53 76.1032C429.272 79.8046 429.283 80.9892 429.563 79.6571C429.702 79.359 429.758 78.991 429.884 78.679C430.62 76.8904 431.98 75.3114 433.243 73.8768C435.218 71.664 437.353 69.5982 439.629 67.6959V63.0381C436.431 67.0244 432.744 70.5924 428.654 73.6579C425.976 75.6374 422.869 77.5751 419.496 78.0036C417.736 78.2272 414.591 78.1154 414.372 75.7772V76.9323C414.372 77.1605 414.042 80.0763 414.452 79.536C414.54 79.4196 414.526 79.182 414.596 79.0702C414.787 78.6883 414.927 78.2784 415.132 77.8965C415.579 77.0952 416.093 76.3333 416.669 75.6188C418.106 73.8252 419.677 72.1435 421.369 70.5884C423.47 68.5995 425.668 66.6944 427.956 64.9245V60.2434C423.597 64.3549 419.004 68.2102 414.2 71.7901C410.804 74.3239 407.264 76.7926 403.426 78.6138C402.774 78.9258 397.799 81.4084 397.603 79.5733V84.1472C397.659 82.5729 399.671 80.8868 400.677 79.8574C402.769 77.79 405.032 75.9031 407.441 74.2168C409.519 72.7403 411.768 71.2358 414.205 70.416C415.276 70.0527 418.234 69.4425 418.448 71.2032V66.6292C418.388 68.5156 415.714 70.3555 414.414 71.3522C411.938 73.2559 409.297 74.9362 406.523 76.3734C403.784 77.8219 400.598 79.4894 397.459 79.7642C396.285 79.8667 394.976 79.7642 394.165 78.7954C393.779 78.3296 393.83 77.78 393.536 77.3422C395.232 79.89 393.164 81.2594 393.662 79.7736C393.839 79.2472 393.956 78.7023 394.151 78.1806C394.964 76.159 396.062 74.2643 397.412 72.554C398.092 71.655 399.131 70.8865 399.359 69.7919C399.513 69.0606 399.764 66.2333 399.359 65.6511C399.117 65.3064 399.233 65.5253 398.716 65.679C396.928 66.2193 394.99 68.0778 393.476 69.1025C390.732 70.9656 387.984 72.7822 385.189 74.5522C382.082 76.5889 378.849 78.4262 375.509 80.053C375.137 80.2254 371.722 82.0512 371.68 80.598V85.1766C371.797 83.6349 373.185 82.0605 374.061 80.8821C375.714 78.6603 377.531 76.555 379.371 74.4823C381.855 71.6876 384.395 68.9581 386.992 66.2939C387.248 66.033 386.992 64.3422 386.992 63.965C386.992 63.5877 386.717 61.8736 386.992 61.6361C383.661 64.794 380.195 67.8263 376.651 70.7467C373.758 73.1315 370.8 75.4558 367.688 77.5518C365.359 79.1121 362.82 80.8123 360.081 81.5342C359.536 81.6739 358.712 81.9208 358.158 81.6739C356.061 80.7424 359.471 80.2207 357.547 84.7947C358.199 83.1477 359.017 81.5715 359.988 80.0903C363.123 75.4325 366.873 71.1939 370.595 67.0251C373.213 64.0907 375.877 61.1982 378.607 58.3756C378.868 58.1101 378.607 56.424 378.607 56.0467C378.607 55.6694 378.327 53.9833 378.607 53.7178C374.228 58.2079 369.756 62.6049 365.224 66.946C358.279 73.602 351.25 80.6026 343.238 86.043C341.947 86.9186 339.101 89.2336 337.471 88.0831C337.058 87.7406 336.749 87.2909 336.576 86.7836C336.488 86.56 336.479 86.22 336.371 86.0197V85.9219C336.283 85.1673 336.278 85.6471 336.371 87.3658C336.371 90.5657 336.292 89.0566 336.46 88.3998C336.866 86.7095 337.439 85.0634 338.169 83.4858C342.702 74.0118 350.281 65.679 357.505 58.1986C361.232 54.3419 365.131 50.5551 369.407 47.2993C369.724 47.0525 374.946 43.4194 375.053 44.4301V39.8561C375.053 40.6526 373.939 41.6354 373.469 42.185C372.16 43.7128 370.739 45.1474 369.314 46.5634C364.996 50.8765 360.496 55.008 355.982 59.1395C346.098 68.1244 336.05 76.9602 325.779 85.5073C324.055 86.9419 322.332 88.3765 320.562 89.7506C320.175 90.0487 317.455 92.2192 317.324 91.4134V94.3618V94.2454V95.9548C317.506 94.5015 318.871 92.9691 319.653 91.814C321.2 89.5969 322.849 87.4543 324.512 85.3257C326.828 82.3633 329.189 79.4366 331.592 76.5457C331.862 76.2243 331.592 74.636 331.592 74.2168C331.592 73.7976 331.308 72.1674 331.592 71.8879C328.185 75.5378 324.542 78.9608 320.687 82.1351C317.962 84.3755 315.098 86.5833 311.888 88.1204C311.124 88.4883 310.137 89.01 309.242 88.9355C308.879 88.9029 308.408 88.4697 308.273 88.4417V92.6338L308.306 92.494C308.367 92.3822 308.367 92.2285 308.432 92.1168C308.581 91.8652 308.683 91.5764 308.828 91.3203C309.276 90.5545 309.781 89.8228 310.337 89.1311C311.669 87.403 313.132 85.7728 314.599 84.1519C315.997 82.6148 317.394 81.101 318.791 79.536C319.439 78.7908 320.389 77.9291 320.655 76.9509C320.878 76.0939 321.079 72.5027 320.347 72.2279C320.166 72.158 319.416 72.54 319.262 72.5912C318.214 72.9359 317.156 73.2619 316.108 73.6159C314.326 74.2183 312.554 74.8565 310.793 75.5303C303.569 78.325 296.633 81.795 289.594 85.0043C283.669 87.7058 274.409 90.8126 274.036 98.6423C273.808 103.393 274.008 108.377 279.095 110.431C281.298 111.321 284.535 111.316 286.897 110.855C289.259 110.394 290.959 108.852 292.273 106.905C295.007 102.848 296.428 97.8319 297.76 93.1834C300.378 84.0494 301.691 74.5522 304.975 65.6418C309.317 53.7224 315.754 40.825 326.594 33.5122C329.147 31.7888 333.581 28.8544 336.628 30.5405C336.744 30.6057 336.702 30.8666 336.781 30.9225C335.132 29.7534 337.457 25.3331 336.711 27.3266C336.407 28.2022 336.044 29.0565 335.626 29.8838C333.795 33.3212 331.396 36.5538 328.998 39.6C325.145 44.4953 320.105 48.4498 315.158 52.176C305.632 59.3537 295.463 65.721 285.132 71.669C284.465 72.0556 283.79 72.4422 283.115 72.8195C282.439 73.1967 283.753 77.1233 283.115 77.4773V77.4773Z" fill="#AA580D"/>
</svg>
