<svg xmlns="http://www.w3.org/2000/svg" xmlns:xlink="http://www.w3.org/1999/xlink" width="60" height="60" viewBox="0 0 60 60" version="1.1">
    <!-- Generator: Sketch 48.2 (47327) - http://www.bohemiancoding.com/sketch -->
    <title>icon-instagram</title>
    <desc>Created with Sketch.</desc>
    <defs/>
    <g id="Icons" stroke="none" stroke-width="1" fill="none" fill-rule="evenodd">
        <path d="M14.5714241,1.00000001e-05 C6.54334083,1.00000001e-05 0,6.54335083 0,14.5714169 L0,45.4285759 C0,53.4566592 6.54334083,60 14.5714241,60 L45.4285574,60 C53.4566406,60 59.9999814,53.4566592 59.9999814,45.4285759 L59.9999814,14.5714169 C59.9999814,6.54335083 53.4566406,9.99999997e-06 45.4285574,9.99999997e-06 L14.5714241,9.99999997e-06 Z M14.5714241,5.14286555 L45.4285574,5.14286555 C50.69647,5.14286555 54.8571259,9.30352141 54.8571259,14.5714169 L54.8571259,45.4285759 C54.8571259,50.6964886 50.69647,54.8571444 45.4285574,54.8571444 L14.5714241,54.8571444 C9.30351141,54.8571444 5.14285555,50.6964886 5.14285555,45.4285759 L5.14285555,14.5714169 C5.14285555,9.30352141 9.30351141,5.14286555 14.5714241,5.14286555 Z M47.1428426,10.285704 C45.2492431,10.285704 43.7142722,11.8206749 43.7142722,13.7142743 C43.7142722,15.607788 45.2492431,17.1428447 47.1428426,17.1428447 C49.0363563,17.1428447 50.5714129,15.607788 50.5714129,13.7142743 C50.5714129,11.8206749 49.0363563,10.285704 47.1428426,10.285704 Z M29.9999907,15.4285595 C21.9828789,15.4285595 15.4285667,21.9828718 15.4285667,30.0000093 C15.4285667,38.0171211 21.9828789,44.5714333 29.9999907,44.5714333 C38.0171025,44.5714333 44.5714148,38.0171211 44.5714148,30.0000093 C44.5714148,21.9828718 38.0171025,15.4285595 29.9999907,15.4285595 Z M29.9999907,20.5714151 C35.237732,20.5714151 39.4285592,24.762328 39.4285592,30.0000093 C39.4285592,35.2376648 35.237732,39.4285778 29.9999907,39.4285778 C24.7622495,39.4285778 20.5714222,35.2376648 20.5714222,30.0000093 C20.5714222,24.762328 24.7622495,20.5714151 29.9999907,20.5714151 Z" id="icon-instagram" fill="#616C6B" fill-rule="nonzero"/>
    </g>
</svg>